<svg xmlns="http://www.w3.org/2000/svg" xmlns:xlink="http://www.w3.org/1999/xlink" width="500" zoomAndPan="magnify" viewBox="0 0 375 374.999991" height="500" preserveAspectRatio="xMidYMid meet" version="1.0"><defs><clipPath id="f1e7ae6060"><path d="M 134.066406 105.804688 L 241.300781 105.804688 L 241.300781 269.304688 L 134.066406 269.304688 Z M 134.066406 105.804688 " clip-rule="nonzero"/></clipPath></defs><rect x="-37.5" width="450" fill="#ffffff" y="-37.499999" height="449.999989" fill-opacity="1"/><rect x="-37.5" width="450" fill="#ffffff" y="-37.499999" height="449.999989" fill-opacity="1"/><g clip-path="url(#f1e7ae6060)"><path fill="#201e1d" d="M 230.359375 205.300781 C 230.746094 206.738281 230.992188 208.171875 231.121094 209.558594 C 231.273438 211.199219 231.261719 212.796875 231.121094 214.359375 C 230.761719 218.546875 229.464844 222.382812 227.992188 225.535156 C 226.773438 228.132812 225.429688 230.273438 224.402344 231.75 L 217.773438 225.867188 C 218.683594 225.015625 220.042969 223.65625 221.527344 221.828125 C 223.535156 219.355469 225.78125 216.007812 227.5 211.910156 C 228.035156 210.621094 228.507812 209.277344 228.894531 207.878906 C 229.167969 206.898438 229.394531 205.886719 229.570312 204.859375 Z M 234.472656 203.753906 C 233.972656 203.492188 233.402344 203.175781 232.796875 202.816406 C 232.316406 202.535156 231.789062 202.21875 231.234375 201.859375 C 230.824219 201.585938 230.402344 201.304688 229.980469 201.023438 C 230.050781 199.320312 229.980469 197.566406 229.734375 195.765625 L 229.726562 195.765625 C 229.457031 193.78125 228.972656 191.726562 228.226562 189.613281 C 227.484375 187.480469 226.472656 185.3125 225.167969 183.089844 C 223.949219 181.019531 222.472656 178.914062 220.703125 176.777344 C 220.824219 176.472656 220.9375 176.164062 221.042969 175.855469 C 221.210938 175.402344 221.378906 174.910156 221.535156 174.382812 L 221.535156 174.390625 L 221.542969 174.355469 C 222.394531 175.355469 223.246094 176.296875 224.078125 177.164062 C 225.253906 178.386719 226.410156 179.472656 227.515625 180.386719 C 228.832031 181.476562 230.105469 182.316406 231.296875 182.863281 C 233.457031 183.855469 235.304688 184.054688 237.023438 182.230469 C 237.699219 181.519531 238.359375 180.519531 238.988281 179.289062 C 239.410156 178.480469 239.824219 177.558594 240.226562 176.542969 C 240.289062 176.382812 240.347656 176.234375 240.410156 176.066406 C 240.796875 177.621094 241.050781 179.148438 241.183594 180.660156 C 241.394531 183.046875 241.304688 185.363281 241.023438 187.566406 C 240.601562 190.78125 239.761719 193.746094 238.804688 196.300781 C 237.515625 199.726562 236.015625 202.421875 235.007812 204.035156 C 234.839844 203.949219 234.664062 203.859375 234.472656 203.753906 Z M 196.171875 250.605469 C 194.722656 248.199219 193.3125 245.339844 192.242188 242.097656 C 191.355469 239.394531 190.707031 236.410156 190.488281 233.1875 C 190.292969 230.46875 190.410156 227.570312 190.933594 224.53125 C 192.066406 223.550781 193.601562 222.121094 195.242188 220.300781 C 196.511719 218.886719 197.863281 217.238281 199.144531 215.378906 C 199.863281 214.34375 200.566406 213.226562 201.222656 212.050781 C 201.511719 211.53125 201.792969 211.015625 202.066406 210.480469 C 202.328125 211.15625 202.609375 211.8125 202.898438 212.453125 C 203.511719 213.769531 204.1875 215.015625 204.90625 216.195312 C 205.722656 217.535156 206.574219 218.765625 207.425781 219.871094 C 208.378906 221.117188 209.328125 222.214844 210.195312 223.15625 C 210.949219 226.296875 211.238281 229.308594 211.195312 232.136719 C 211.140625 235.445312 210.625 238.535156 209.835938 241.363281 C 208.632812 245.644531 206.820312 249.304688 205.046875 252.167969 C 203.636719 254.46875 202.25 256.257812 201.230469 257.453125 C 199.933594 256.011719 198.03125 253.6875 196.171875 250.605469 Z M 212.6875 220.496094 C 211.328125 219.019531 209.820312 217.167969 208.421875 214.992188 C 207.46875 213.5 206.5625 211.839844 205.800781 210.03125 C 205.160156 208.53125 204.617188 206.921875 204.222656 205.230469 C 204.484375 204.40625 204.722656 203.570312 204.914062 202.710938 C 205.132812 201.769531 205.308594 200.796875 205.449219 199.796875 C 205.539062 199.085938 205.617188 198.363281 205.660156 197.601562 C 205.695312 197.003906 205.714844 196.417969 205.703125 195.835938 L 205.898438 195.6875 C 206.6875 195.097656 208.378906 193.757812 210.386719 191.796875 C 211.652344 190.5625 213.054688 189.058594 214.449219 187.320312 C 215.449219 186.082031 216.441406 184.730469 217.359375 183.28125 C 217.941406 182.386719 218.484375 181.449219 219 180.464844 C 222.730469 185.277344 224.808594 189.867188 225.753906 194.152344 C 226.984375 199.734375 226.261719 204.800781 224.691406 209.117188 C 223.640625 212.03125 222.203125 214.613281 220.71875 216.789062 C 218.746094 219.6875 216.695312 221.863281 215.351562 223.144531 C 214.632812 222.496094 213.703125 221.609375 212.6875 220.496094 Z M 201.160156 188.902344 C 199.425781 187.269531 197.460938 185.179688 195.636719 182.695312 C 194.523438 181.1875 193.46875 179.535156 192.558594 177.746094 C 191.742188 176.136719 191.03125 174.417969 190.496094 172.609375 C 191.417969 171.828125 192.347656 170.949219 193.269531 170 C 194.328125 168.894531 195.40625 167.675781 196.476562 166.351562 C 197.566406 164.988281 198.636719 163.53125 199.644531 162.003906 C 200.609375 160.546875 201.53125 159.019531 202.363281 157.464844 C 203.039062 156.203125 203.652344 154.894531 204.203125 153.585938 C 204.773438 152.226562 205.285156 150.847656 205.714844 149.488281 L 205.757812 149.328125 C 205.941406 149.765625 206.132812 150.207031 206.335938 150.664062 C 206.992188 152.128906 207.757812 153.664062 208.589844 155.238281 C 210.011719 157.90625 211.660156 160.679688 213.414062 163.382812 C 215.082031 165.945312 216.871094 168.484375 218.695312 170.851562 C 218.308594 172.730469 217.730469 174.515625 217.027344 176.199219 C 216.148438 178.253906 215.082031 180.175781 213.929688 181.914062 C 212.519531 184.03125 210.992188 185.890625 209.539062 187.460938 C 207.667969 189.480469 205.933594 191.007812 204.773438 191.957031 C 203.855469 191.253906 202.582031 190.226562 201.160156 188.902344 Z M 238.902344 168.675781 C 238.347656 170.933594 237.699219 172.996094 237.023438 174.761719 C 236.375 176.453125 235.734375 177.847656 235.15625 178.816406 C 234.429688 180.027344 234.421875 180.21875 233.09375 179.691406 C 231.21875 178.945312 228.839844 176.953125 226.289062 174.242188 C 223.394531 171.160156 220.316406 167.167969 217.484375 162.953125 C 214.675781 158.792969 212.140625 154.4375 210.28125 150.558594 C 209.589844 149.125 206.484375 142.304688 207.335938 140.191406 C 207.984375 138.550781 210.851562 137.511719 214.640625 137.3125 C 217.457031 137.160156 220.738281 137.503906 224 138.433594 C 227.246094 139.367188 230.472656 140.867188 233.191406 143.050781 C 238.085938 146.976562 241.347656 153.121094 240.15625 162.058594 C 239.847656 164.347656 239.417969 166.59375 238.902344 168.675781 Z M 145.117188 211.171875 C 145.195312 209.714844 145.386719 208.222656 145.738281 206.703125 L 146.519531 206.230469 C 146.730469 207.257812 146.992188 208.257812 147.300781 209.230469 C 147.730469 210.628906 148.246094 211.953125 148.828125 213.207031 C 150.675781 217.265625 153.027344 220.519531 155.113281 222.925781 C 156.660156 224.699219 158.054688 226.015625 159.007812 226.84375 L 152.570312 232.941406 C 151.5 231.503906 150.089844 229.414062 148.78125 226.84375 C 147.203125 223.742188 145.773438 219.949219 145.273438 215.773438 C 145.097656 214.289062 145.039062 212.753906 145.117188 211.171875 Z M 143.230469 204.300781 C 142.660156 204.660156 142.097656 205 141.582031 205.300781 C 141.398438 205.394531 141.222656 205.5 141.054688 205.589844 C 139.996094 204.007812 138.40625 201.367188 137.011719 197.988281 C 135.96875 195.460938 135.03125 192.527344 134.503906 189.332031 C 134.125 187.007812 133.960938 184.546875 134.136719 182.011719 C 134.230469 180.640625 134.425781 179.238281 134.730469 177.824219 C 135.1875 178.902344 135.6875 179.964844 136.257812 180.992188 C 136.925781 182.195312 137.625 183.179688 138.320312 183.863281 C 140.089844 185.617188 141.925781 185.371094 144.0625 184.3125 C 145.238281 183.722656 146.484375 182.835938 147.765625 181.703125 C 148.835938 180.753906 149.957031 179.632812 151.089844 178.375 C 151.894531 177.480469 152.710938 176.507812 153.527344 175.488281 L 153.535156 175.515625 C 153.695312 175.972656 153.878906 176.453125 154.082031 176.972656 C 154.203125 177.269531 154.324219 177.578125 154.457031 177.875 C 152.753906 180.070312 151.34375 182.230469 150.195312 184.335938 C 148.964844 186.59375 148.035156 188.796875 147.351562 190.949219 C 146.703125 193.011719 146.292969 195.003906 146.082031 196.941406 C 145.871094 198.820312 145.851562 200.648438 145.984375 202.410156 C 145.582031 202.710938 145.167969 203.007812 144.757812 203.289062 C 144.1875 203.683594 143.6875 204.019531 143.230469 204.300781 Z M 185.050781 242.222656 C 183.832031 246.382812 182.042969 249.9375 180.304688 252.730469 C 178.917969 254.960938 177.566406 256.6875 176.578125 257.855469 C 175.535156 256.695312 174.085938 254.960938 172.59375 252.710938 C 170.726562 249.894531 168.789062 246.292969 167.445312 242.054688 C 166.570312 239.273438 165.957031 236.199219 165.789062 232.882812 C 165.648438 230.046875 165.839844 227.035156 166.480469 223.882812 C 167.332031 222.910156 168.246094 221.777344 169.148438 220.503906 C 169.972656 219.355469 170.789062 218.097656 171.550781 216.746094 C 172.246094 215.507812 172.910156 214.175781 173.5 212.753906 C 173.742188 212.164062 173.980469 211.558594 174.199219 210.945312 C 174.480469 211.472656 174.777344 211.980469 175.078125 212.480469 C 175.761719 213.605469 176.507812 214.691406 177.269531 215.738281 C 178.621094 217.554688 180.023438 219.160156 181.339844 220.53125 C 183.039062 222.292969 184.621094 223.671875 185.777344 224.613281 C 186.453125 227.851562 186.644531 230.941406 186.496094 233.847656 C 186.339844 236.839844 185.804688 239.648438 185.050781 242.222656 Z M 167.992188 215.660156 C 166.910156 217.464844 165.761719 219.054688 164.683594 220.390625 C 163.402344 221.96875 162.210938 223.199219 161.332031 224.042969 C 159.957031 222.804688 157.832031 220.695312 155.765625 217.863281 C 154.203125 215.738281 152.6875 213.199219 151.527344 210.328125 C 149.824219 206.074219 148.941406 201.035156 149.984375 195.398438 C 150.78125 191.097656 152.710938 186.445312 156.273438 181.511719 C 156.867188 182.554688 157.5 183.546875 158.167969 184.496094 C 159.089844 185.820312 160.0625 187.066406 161.042969 188.207031 C 162.492188 189.882812 163.945312 191.332031 165.261719 192.535156 C 167.332031 194.441406 169.070312 195.722656 169.875 196.285156 L 170.070312 196.425781 C 170.085938 197.011719 170.121094 197.601562 170.175781 198.1875 C 170.246094 198.9375 170.339844 199.65625 170.464844 200.382812 C 170.628906 201.375 170.839844 202.339844 171.085938 203.273438 C 171.316406 204.105469 171.570312 204.941406 171.867188 205.765625 C 171.535156 207.460938 171.042969 209.082031 170.445312 210.621094 C 169.746094 212.445312 168.894531 214.128906 167.992188 215.660156 Z M 179.707031 182.960938 C 177.964844 185.511719 176.070312 187.65625 174.382812 189.339844 C 173.015625 190.710938 171.777344 191.78125 170.875 192.519531 C 169.683594 191.605469 167.902344 190.148438 165.964844 188.191406 C 164.464844 186.671875 162.878906 184.863281 161.394531 182.785156 C 160.253906 181.1875 159.183594 179.429688 158.28125 177.535156 C 157.4375 175.769531 156.738281 173.882812 156.265625 171.890625 C 158 169.476562 159.703125 166.886719 161.289062 164.261719 C 162.964844 161.488281 164.515625 158.660156 165.839844 155.949219 C 166.632812 154.351562 167.332031 152.789062 167.945312 151.296875 C 168.132812 150.839844 168.316406 150.390625 168.480469 149.941406 L 168.535156 150.101562 C 169.007812 151.445312 169.558594 152.804688 170.175781 154.148438 C 170.78125 155.464844 171.4375 156.746094 172.140625 157.964844 C 173.023438 159.492188 174 160.996094 175.015625 162.417969 C 176.070312 163.902344 177.183594 165.324219 178.324219 166.648438 C 179.410156 167.914062 180.53125 169.105469 181.644531 170.1875 C 182.621094 171.117188 183.574219 171.96875 184.503906 172.707031 C 184.066406 174.410156 183.472656 176.03125 182.769531 177.570312 C 181.882812 179.515625 180.832031 181.316406 179.707031 182.960938 Z M 138.074219 176.402344 C 137.335938 174.644531 136.617188 172.601562 135.996094 170.378906 C 135.40625 168.308594 134.898438 166.085938 134.519531 163.804688 C 133.847656 159.773438 134.382812 155.902344 135.792969 152.453125 C 137.300781 148.765625 139.800781 145.546875 142.90625 143.085938 C 146.011719 140.621094 149.710938 138.917969 153.597656 138.257812 C 157.253906 137.652344 161.085938 137.96875 164.746094 139.472656 C 166.421875 140.15625 166.851562 140.707031 166.746094 142.375 C 166.613281 144.542969 165.585938 147.714844 164.007812 151.320312 C 162.273438 155.273438 159.878906 159.703125 157.21875 163.953125 C 154.527344 168.253906 151.582031 172.34375 148.792969 175.523438 C 147.105469 177.429688 145.503906 178.992188 144.0625 180.054688 C 143.398438 180.554688 142.757812 180.941406 142.167969 181.195312 C 140.835938 181.78125 140.863281 181.597656 140.082031 180.394531 C 139.46875 179.445312 138.773438 178.070312 138.074219 176.402344 Z M 188.664062 242.800781 C 189.679688 246.023438 191.023438 248.902344 192.425781 251.367188 C 194.300781 254.6875 196.292969 257.285156 197.8125 259.050781 C 197.300781 259.894531 196.765625 260.691406 196.222656 261.464844 C 195.46875 262.507812 194.695312 263.492188 193.925781 264.394531 C 192.882812 265.617188 191.882812 266.679688 190.960938 267.574219 C 190.292969 268.230469 189.664062 268.8125 189.101562 269.304688 C 188.417969 268.75 187.636719 268.074219 186.8125 267.300781 C 185.960938 266.503906 185.039062 265.582031 184.121094 264.5625 C 183.320312 263.695312 182.515625 262.738281 181.726562 261.699219 C 181.164062 260.964844 180.601562 260.183594 180.050781 259.347656 C 181.277344 257.820312 182.820312 255.695312 184.320312 253.082031 C 185.953125 250.21875 187.550781 246.761719 188.664062 242.800781 Z M 188.320312 222.003906 C 187.171875 221.082031 185.503906 219.652344 183.691406 217.746094 C 181.542969 215.484375 179.199219 212.570312 177.3125 209.089844 C 176.191406 207.019531 175.234375 204.746094 174.585938 202.296875 C 173.972656 199.980469 173.628906 197.503906 173.699219 194.898438 C 175.007812 193.792969 176.789062 192.167969 178.664062 190.097656 C 180.121094 188.496094 181.628906 186.628906 183.050781 184.496094 C 184.074219 182.933594 185.066406 181.230469 185.910156 179.4375 C 186.539062 178.105469 187.09375 176.71875 187.539062 175.285156 C 188.039062 176.707031 188.644531 178.078125 189.3125 179.375 C 190.222656 181.160156 191.257812 182.828125 192.339844 184.335938 C 194.109375 186.820312 196.03125 188.953125 197.8125 190.703125 C 199.425781 192.28125 200.898438 193.535156 202.03125 194.421875 C 202.171875 196.855469 201.960938 199.179688 201.496094 201.375 C 200.933594 204.027344 200.011719 206.492188 198.882812 208.730469 C 197.117188 212.269531 194.871094 215.261719 192.804688 217.589844 C 191.058594 219.554688 189.433594 221.046875 188.320312 222.003906 Z M 160.148438 230.746094 C 160.851562 230.082031 161.5625 229.394531 162.183594 228.789062 C 162.078125 230.519531 162.097656 232.1875 162.210938 233.804688 C 162.394531 236.480469 162.84375 239 163.464844 241.363281 C 164.148438 243.90625 165.035156 246.257812 166.027344 248.390625 C 166.894531 250.253906 167.824219 251.949219 168.761719 253.457031 C 168.613281 253.605469 168.472656 253.738281 168.339844 253.851562 C 168.035156 254.140625 167.726562 254.40625 167.445312 254.652344 C 167.140625 254.925781 166.824219 255.179688 166.535156 255.414062 L 166.324219 255.589844 C 165.261719 254.441406 163.746094 252.648438 162.226562 250.339844 C 160.402344 247.558594 158.5625 244.011719 157.519531 239.914062 C 157.265625 238.910156 157.054688 237.867188 156.914062 236.804688 C 156.78125 235.890625 156.703125 234.96875 156.667969 234.039062 C 157.335938 233.425781 158.746094 232.089844 160.148438 230.746094 Z M 180.761719 134.835938 C 183.699219 133.851562 184.398438 133.683594 184.609375 130.667969 C 185.09375 123.886719 186.382812 115.304688 189.425781 105.804688 L 194.066406 107.472656 C 191.234375 116.394531 190.003906 124.441406 189.550781 130.816406 C 189.375 133.253906 190.101562 133.683594 192.523438 134.386719 C 195.601562 135.28125 199.601562 136.160156 201.757812 138.503906 C 203.222656 140.09375 203.828125 142.4375 202.890625 146.167969 C 202.496094 147.730469 201.960938 149.398438 201.320312 151.058594 C 200.707031 152.636719 199.976562 154.234375 199.160156 155.753906 C 198.3125 157.34375 197.390625 158.871094 196.417969 160.320312 C 195.390625 161.839844 194.3125 163.285156 193.1875 164.636719 C 192.136719 165.910156 191.066406 167.085938 190.015625 168.132812 C 189.144531 168.984375 188.285156 169.746094 187.460938 170.40625 C 186.609375 169.773438 185.734375 169.035156 184.847656 168.21875 C 183.761719 167.210938 182.644531 166.070312 181.550781 164.832031 C 180.390625 163.515625 179.253906 162.109375 178.191406 160.625 C 177.164062 159.214844 176.191406 157.710938 175.289062 156.148438 C 174.429688 154.667969 173.65625 153.09375 172.980469 151.53125 C 172.277344 149.871094 171.691406 148.230469 171.246094 146.6875 C 170.570312 144.34375 170.578125 142.523438 171.070312 141.09375 C 172.339844 137.328125 177.453125 135.941406 180.761719 134.835938 Z M 214.660156 227.929688 C 215.308594 228.507812 216.046875 229.167969 216.773438 229.828125 C 218.21875 231.117188 219.660156 232.390625 220.34375 232.988281 C 220.34375 233.925781 220.289062 234.855469 220.195312 235.761719 C 220.089844 236.832031 219.914062 237.875 219.683594 238.886719 L 219.695312 238.886719 C 218.984375 242.089844 217.789062 244.988281 216.476562 247.453125 C 214.695312 250.796875 212.695312 253.351562 211.414062 254.835938 C 211.019531 254.546875 210.640625 254.257812 210.257812 253.949219 C 209.941406 253.695312 209.617188 253.421875 209.292969 253.140625 C 209.167969 253.035156 209.039062 252.921875 208.898438 252.800781 C 209.78125 251.261719 210.660156 249.535156 211.46875 247.648438 C 212.386719 245.46875 213.195312 243.082031 213.792969 240.519531 C 214.34375 238.140625 214.710938 235.601562 214.808594 232.933594 C 214.863281 231.308594 214.816406 229.640625 214.660156 227.929688 " fill-opacity="1" fill-rule="evenodd"/></g></svg>