<svg xmlns="http://www.w3.org/2000/svg" xmlns:xlink="http://www.w3.org/1999/xlink" width="500" zoomAndPan="magnify" viewBox="0 0 375 374.999991" height="500" preserveAspectRatio="xMidYMid meet" version="1.0"><defs><g/><clipPath id="4c13fccd8f"><path d="M 267.359375 156.546875 L 291.359375 156.546875 L 291.359375 180.546875 L 267.359375 180.546875 Z M 267.359375 156.546875 " clip-rule="nonzero"/></clipPath></defs><rect x="-37.5" width="450" fill="#ffffff" y="-37.499999" height="449.999989" fill-opacity="1"/><rect x="-37.5" width="450" fill="#000000" y="-37.499999" height="449.999989" fill-opacity="1"/><g fill="#ffffff" fill-opacity="1"><g transform="translate(103.47656, 201.525001)"><g><path d="M 17.304688 0.546875 C 24.445312 0.546875 30.238281 -3.78125 32.003906 -10.332031 L 28.097656 -10.332031 C 26.585938 -5.921875 22.429688 -3.148438 17.429688 -3.148438 C 10.878906 -3.148438 6.214844 -7.894531 6.214844 -14.699219 C 6.214844 -21.503906 10.878906 -26.25 17.429688 -26.25 C 22.300781 -26.25 26.292969 -23.644531 27.804688 -19.402344 L 31.753906 -19.402344 C 29.820312 -25.871094 24.234375 -29.945312 17.304688 -29.945312 C 8.652344 -29.945312 2.4375 -23.5625 2.4375 -14.699219 C 2.4375 -5.839844 8.652344 0.546875 17.304688 0.546875 Z M 17.304688 0.546875 "/></g></g></g><g fill="#ffffff" fill-opacity="1"><g transform="translate(137.748557, 201.525001)"><g><path d="M 3.90625 0 L 7.433594 0 L 7.433594 -31.078125 L 3.90625 -31.078125 Z M 3.90625 0 "/></g></g></g><g fill="#ffffff" fill-opacity="1"><g transform="translate(149.088553, 201.525001)"><g><path d="M 3.90625 0 L 7.433594 0 L 7.433594 -21.796875 L 3.90625 -21.796875 Z M 2.8125 -28.140625 C 2.8125 -26.585938 3.949219 -25.410156 5.671875 -25.410156 C 7.390625 -25.410156 8.484375 -26.585938 8.484375 -28.140625 C 8.484375 -29.734375 7.390625 -30.910156 5.671875 -30.910156 C 3.949219 -30.910156 2.8125 -29.734375 2.8125 -28.140625 Z M 2.8125 -28.140625 "/></g></g></g><g fill="#ffffff" fill-opacity="1"><g transform="translate(160.428548, 201.525001)"><g><path d="M 15.792969 0.546875 C 22.21875 0.546875 26.878906 -4.285156 26.878906 -10.921875 C 26.878906 -17.515625 22.21875 -22.34375 15.792969 -22.34375 C 12.222656 -22.34375 9.199219 -20.875 7.222656 -18.4375 L 6.804688 -21.796875 L 3.90625 -21.796875 L 3.90625 8.398438 L 7.433594 8.398438 L 7.433594 -3.109375 C 9.40625 -0.839844 12.347656 0.546875 15.792969 0.546875 Z M 7.308594 -10.921875 C 7.308594 -15.625 10.625 -18.984375 15.328125 -18.984375 C 20.074219 -18.984375 23.351562 -15.625 23.351562 -10.921875 C 23.351562 -6.175781 20.074219 -2.855469 15.328125 -2.855469 C 10.625 -2.855469 7.308594 -6.175781 7.308594 -10.921875 Z M 7.308594 -10.921875 "/></g></g></g><g fill="#ffffff" fill-opacity="1"><g transform="translate(189.492546, 201.525001)"><g><path d="M 15.792969 0.546875 C 22.21875 0.546875 26.878906 -4.285156 26.878906 -10.921875 C 26.878906 -17.515625 22.21875 -22.34375 15.792969 -22.34375 C 12.222656 -22.34375 9.199219 -20.875 7.222656 -18.4375 L 6.804688 -21.796875 L 3.90625 -21.796875 L 3.90625 8.398438 L 7.433594 8.398438 L 7.433594 -3.109375 C 9.40625 -0.839844 12.347656 0.546875 15.792969 0.546875 Z M 7.308594 -10.921875 C 7.308594 -15.625 10.625 -18.984375 15.328125 -18.984375 C 20.074219 -18.984375 23.351562 -15.625 23.351562 -10.921875 C 23.351562 -6.175781 20.074219 -2.855469 15.328125 -2.855469 C 10.625 -2.855469 7.308594 -6.175781 7.308594 -10.921875 Z M 7.308594 -10.921875 "/></g></g></g><g fill="#ffffff" fill-opacity="1"><g transform="translate(218.556543, 201.525001)"><g><path d="M 3.90625 0 L 7.433594 0 L 7.433594 -21.796875 L 3.90625 -21.796875 Z M 2.8125 -28.140625 C 2.8125 -26.585938 3.949219 -25.410156 5.671875 -25.410156 C 7.390625 -25.410156 8.484375 -26.585938 8.484375 -28.140625 C 8.484375 -29.734375 7.390625 -30.910156 5.671875 -30.910156 C 3.949219 -30.910156 2.8125 -29.734375 2.8125 -28.140625 Z M 2.8125 -28.140625 "/></g></g></g><g fill="#ffffff" fill-opacity="1"><g transform="translate(229.896539, 201.525001)"><g><path d="M 6.007812 -24.023438 L 6.007812 -21.796875 L 1.261719 -21.796875 L 1.261719 -18.5625 L 6.007812 -18.5625 L 6.007812 0 L 9.535156 0 L 9.535156 -18.5625 L 17.136719 -18.5625 L 17.136719 -21.796875 L 9.535156 -21.796875 L 9.535156 -23.8125 C 9.535156 -26.964844 10.878906 -28.308594 13.945312 -28.308594 L 17.347656 -28.308594 L 17.347656 -31.625 L 13.609375 -31.625 C 8.695312 -31.625 6.007812 -28.980469 6.007812 -24.023438 Z M 6.007812 -24.023438 "/></g></g></g><g fill="#ffffff" fill-opacity="1"><g transform="translate(247.66254, 201.525001)"><g><path d="M 3.148438 8.398438 L 5.628906 8.398438 C 9.703125 8.398438 11.675781 7.390625 13.1875 3.402344 L 23.183594 -21.796875 L 19.445312 -21.796875 L 15.371094 -11.507812 L 12.726562 -4.746094 L 9.535156 -11.507812 L 4.621094 -21.796875 L 0.671875 -21.796875 L 11.003906 -0.503906 L 9.996094 2.058594 C 9.070312 4.492188 8.105469 5.082031 5.292969 5.082031 L 3.148438 5.082031 Z M 3.148438 8.398438 "/></g></g></g><g clip-path="url(#4c13fccd8f)"><path fill="#5ce1e6" d="M 285.332031 156.546875 L 273.347656 156.546875 C 270.039062 156.546875 267.359375 159.226562 267.359375 162.535156 C 267.359375 165.84375 270.039062 168.527344 273.347656 168.527344 L 279.339844 168.527344 L 279.339844 174.519531 C 279.339844 177.828125 282.023438 180.511719 285.332031 180.511719 C 288.640625 180.511719 291.324219 177.828125 291.324219 174.519531 L 291.324219 162.535156 C 291.324219 159.226562 288.640625 156.546875 285.332031 156.546875 Z M 285.332031 156.546875 " fill-opacity="1" fill-rule="nonzero"/></g></svg>