<svg xmlns="http://www.w3.org/2000/svg" xmlns:xlink="http://www.w3.org/1999/xlink" width="500" zoomAndPan="magnify" viewBox="0 0 375 374.999991" height="500" preserveAspectRatio="xMidYMid meet" version="1.0"><defs><clipPath id="38f31bce2e"><path d="M 134.066406 105.804688 L 240.925781 105.804688 L 240.925781 269.1875 L 134.066406 269.1875 Z M 134.066406 105.804688 " clip-rule="nonzero"/></clipPath></defs><g clip-path="url(#38f31bce2e)"><path fill="#000000" d="M 230.023438 205.226562 C 230.40625 206.667969 230.652344 208.097656 230.78125 209.484375 C 230.933594 211.121094 230.921875 212.71875 230.78125 214.28125 C 230.425781 218.464844 229.132812 222.300781 227.664062 225.449219 C 226.449219 228.042969 225.109375 230.183594 224.085938 231.660156 L 217.480469 225.78125 C 218.390625 224.929688 219.746094 223.570312 221.222656 221.746094 C 223.222656 219.273438 225.460938 215.929688 227.171875 211.832031 C 227.707031 210.542969 228.179688 209.203125 228.5625 207.808594 C 228.832031 206.824219 229.0625 205.816406 229.234375 204.789062 Z M 234.121094 203.683594 C 233.621094 203.421875 233.054688 203.105469 232.453125 202.746094 C 231.972656 202.464844 231.445312 202.148438 230.894531 201.789062 C 230.484375 201.519531 230.066406 201.238281 229.648438 200.957031 C 229.714844 199.253906 229.648438 197.5 229.402344 195.703125 L 229.394531 195.703125 C 229.121094 193.71875 228.640625 191.667969 227.898438 189.550781 C 227.15625 187.421875 226.152344 185.253906 224.847656 183.035156 C 223.632812 180.964844 222.164062 178.859375 220.398438 176.726562 C 220.523438 176.421875 220.636719 176.113281 220.738281 175.808594 C 220.90625 175.351562 221.074219 174.859375 221.230469 174.332031 L 221.230469 174.34375 L 221.238281 174.308594 C 222.085938 175.308594 222.933594 176.246094 223.765625 177.113281 C 224.9375 178.332031 226.089844 179.421875 227.191406 180.332031 C 228.5 181.421875 229.769531 182.261719 230.957031 182.808594 C 233.109375 183.796875 234.953125 184 236.664062 182.175781 C 237.339844 181.464844 237.992188 180.464844 238.621094 179.238281 C 239.042969 178.429688 239.453125 177.507812 239.855469 176.492188 C 239.914062 176.332031 239.976562 176.183594 240.039062 176.015625 C 240.421875 177.570312 240.675781 179.097656 240.808594 180.605469 C 241.015625 182.992188 240.929688 185.308594 240.652344 187.507812 C 240.230469 190.71875 239.390625 193.683594 238.441406 196.238281 C 237.15625 199.65625 235.660156 202.351562 234.65625 203.964844 C 234.488281 203.878906 234.3125 203.789062 234.121094 203.683594 Z M 195.953125 250.5 C 194.511719 248.097656 193.105469 245.238281 192.039062 242 C 191.15625 239.300781 190.507812 236.316406 190.289062 233.097656 C 190.097656 230.378906 190.210938 227.484375 190.734375 224.449219 C 191.863281 223.464844 193.394531 222.035156 195.027344 220.21875 C 196.292969 218.808594 197.640625 217.160156 198.917969 215.296875 C 199.632812 214.265625 200.332031 213.148438 200.988281 211.972656 C 201.277344 211.457031 201.554688 210.9375 201.828125 210.402344 C 202.089844 211.078125 202.367188 211.738281 202.65625 212.378906 C 203.269531 213.695312 203.941406 214.9375 204.660156 216.113281 C 205.472656 217.457031 206.320312 218.683594 207.167969 219.789062 C 208.121094 221.035156 209.0625 222.132812 209.929688 223.070312 C 210.679688 226.210938 210.96875 229.21875 210.925781 232.046875 C 210.871094 235.351562 210.355469 238.4375 209.570312 241.265625 C 208.375 245.546875 206.5625 249.203125 204.796875 252.0625 C 203.390625 254.359375 202.011719 256.148438 200.996094 257.34375 C 199.703125 255.90625 197.804688 253.582031 195.953125 250.5 Z M 212.410156 220.414062 C 211.054688 218.9375 209.554688 217.089844 208.164062 214.914062 C 207.210938 213.421875 206.308594 211.765625 205.550781 209.957031 C 204.914062 208.457031 204.371094 206.851562 203.976562 205.15625 C 204.238281 204.332031 204.476562 203.5 204.667969 202.640625 C 204.886719 201.703125 205.0625 200.726562 205.199219 199.726562 C 205.289062 199.019531 205.367188 198.296875 205.410156 197.535156 C 205.445312 196.9375 205.464844 196.351562 205.453125 195.773438 L 205.644531 195.621094 C 206.433594 195.035156 208.121094 193.691406 210.121094 191.738281 C 211.378906 190.5 212.777344 189 214.167969 187.261719 C 215.164062 186.027344 216.152344 184.675781 217.070312 183.226562 C 217.644531 182.332031 218.1875 181.394531 218.703125 180.414062 C 222.417969 185.21875 224.492188 189.808594 225.433594 194.085938 C 226.65625 199.667969 225.941406 204.730469 224.375 209.042969 C 223.328125 211.957031 221.894531 214.535156 220.417969 216.710938 C 218.449219 219.605469 216.40625 221.78125 215.066406 223.0625 C 214.351562 222.414062 213.425781 221.527344 212.410156 220.414062 Z M 200.925781 188.84375 C 199.195312 187.210938 197.238281 185.125 195.421875 182.640625 C 194.3125 181.132812 193.261719 179.480469 192.351562 177.691406 C 191.539062 176.085938 190.832031 174.367188 190.296875 172.5625 C 191.214844 171.78125 192.144531 170.902344 193.0625 169.957031 C 194.117188 168.851562 195.191406 167.632812 196.257812 166.304688 C 197.34375 164.945312 198.410156 163.492188 199.414062 161.964844 C 200.375 160.507812 201.292969 158.980469 202.125 157.429688 C 202.796875 156.164062 203.410156 154.859375 203.960938 153.550781 C 204.527344 152.191406 205.035156 150.816406 205.464844 149.457031 L 205.507812 149.296875 C 205.691406 149.734375 205.882812 150.175781 206.082031 150.632812 C 206.738281 152.097656 207.5 153.632812 208.328125 155.203125 C 209.746094 157.867188 211.386719 160.640625 213.136719 163.339844 C 214.796875 165.902344 216.582031 168.4375 218.398438 170.808594 C 218.015625 172.683594 217.4375 174.464844 216.738281 176.148438 C 215.863281 178.203125 214.796875 180.121094 213.652344 181.859375 C 212.246094 183.972656 210.722656 185.832031 209.273438 187.402344 C 207.410156 189.421875 205.679688 190.949219 204.527344 191.894531 C 203.609375 191.191406 202.34375 190.167969 200.925781 188.84375 Z M 238.535156 168.628906 C 237.984375 170.886719 237.339844 172.945312 236.664062 174.710938 C 236.019531 176.402344 235.378906 177.796875 234.804688 178.761719 C 234.078125 179.972656 234.070312 180.167969 232.75 179.640625 C 230.878906 178.894531 228.511719 176.902344 225.96875 174.191406 C 223.082031 171.113281 220.015625 167.121094 217.191406 162.910156 C 214.394531 158.753906 211.871094 154.402344 210.015625 150.527344 C 209.324219 149.09375 206.230469 142.28125 207.078125 140.164062 C 207.726562 138.527344 210.585938 137.492188 214.359375 137.289062 C 217.164062 137.140625 220.433594 137.480469 223.6875 138.410156 C 226.917969 139.339844 230.136719 140.839844 232.84375 143.023438 C 237.722656 146.945312 240.972656 153.085938 239.785156 162.015625 C 239.480469 164.308594 239.050781 166.550781 238.535156 168.628906 Z M 145.078125 211.097656 C 145.15625 209.640625 145.347656 208.148438 145.699219 206.632812 L 146.476562 206.160156 C 146.6875 207.183594 146.949219 208.183594 147.253906 209.160156 C 147.683594 210.554688 148.199219 211.878906 148.773438 213.132812 C 150.617188 217.183594 152.960938 220.4375 155.042969 222.84375 C 156.578125 224.613281 157.96875 225.929688 158.921875 226.753906 L 152.507812 232.851562 C 151.441406 231.414062 150.035156 229.324219 148.730469 226.753906 C 147.15625 223.660156 145.734375 219.867188 145.234375 215.695312 C 145.058594 214.210938 145 212.675781 145.078125 211.097656 Z M 143.199219 204.226562 C 142.628906 204.589844 142.070312 204.929688 141.554688 205.226562 C 141.371094 205.324219 141.195312 205.429688 141.03125 205.519531 C 139.972656 203.9375 138.390625 201.296875 137 197.921875 C 135.960938 195.394531 135.027344 192.464844 134.503906 189.273438 C 134.125 186.949219 133.960938 184.492188 134.136719 181.957031 C 134.230469 180.585938 134.421875 179.183594 134.730469 177.773438 C 135.183594 178.851562 135.683594 179.910156 136.25 180.9375 C 136.914062 182.140625 137.613281 183.125 138.304688 183.808594 C 140.070312 185.5625 141.894531 185.316406 144.027344 184.253906 C 145.199219 183.667969 146.441406 182.78125 147.71875 181.648438 C 148.785156 180.703125 149.902344 179.578125 151.03125 178.324219 C 151.832031 177.429688 152.648438 176.457031 153.460938 175.4375 L 153.46875 175.464844 C 153.625 175.921875 153.808594 176.402344 154.011719 176.921875 C 154.132812 177.21875 154.253906 177.527344 154.386719 177.824219 C 152.691406 180.015625 151.28125 182.175781 150.136719 184.28125 C 148.914062 186.535156 147.988281 188.738281 147.304688 190.886719 C 146.660156 192.949219 146.25 194.9375 146.039062 196.878906 C 145.828125 198.753906 145.8125 200.578125 145.941406 202.34375 C 145.539062 202.640625 145.128906 202.9375 144.71875 203.21875 C 144.152344 203.613281 143.652344 203.949219 143.199219 204.226562 Z M 184.871094 242.125 C 183.65625 246.28125 181.875 249.835938 180.144531 252.625 C 178.761719 254.851562 177.414062 256.582031 176.429688 257.746094 C 175.386719 256.589844 173.945312 254.851562 172.460938 252.605469 C 170.597656 249.789062 168.667969 246.195312 167.328125 241.957031 C 166.457031 239.175781 165.84375 236.105469 165.679688 232.789062 C 165.539062 229.957031 165.730469 226.949219 166.367188 223.800781 C 167.214844 222.824219 168.125 221.695312 169.027344 220.421875 C 169.847656 219.273438 170.660156 218.019531 171.421875 216.667969 C 172.109375 215.429688 172.773438 214.097656 173.359375 212.675781 C 173.605469 212.089844 173.839844 211.484375 174.058594 210.867188 C 174.339844 211.394531 174.636719 211.902344 174.933594 212.402344 C 175.617188 213.527344 176.359375 214.613281 177.117188 215.660156 C 178.464844 217.472656 179.863281 219.078125 181.175781 220.449219 C 182.871094 222.210938 184.441406 223.589844 185.597656 224.527344 C 186.269531 227.765625 186.460938 230.851562 186.3125 233.753906 C 186.15625 236.746094 185.621094 239.554688 184.871094 242.125 Z M 167.871094 215.578125 C 166.796875 217.386719 165.652344 218.972656 164.578125 220.308594 C 163.300781 221.886719 162.113281 223.113281 161.238281 223.957031 C 159.867188 222.71875 157.75 220.613281 155.6875 217.78125 C 154.132812 215.660156 152.621094 213.125 151.464844 210.253906 C 149.769531 206 148.886719 200.964844 149.929688 195.332031 C 150.722656 191.035156 152.648438 186.386719 156.195312 181.457031 C 156.789062 182.5 157.417969 183.492188 158.082031 184.4375 C 159 185.761719 159.96875 187.007812 160.949219 188.148438 C 162.390625 189.824219 163.84375 191.273438 165.152344 192.472656 C 167.214844 194.378906 168.945312 195.65625 169.75 196.21875 L 169.941406 196.359375 C 169.960938 196.949219 169.996094 197.535156 170.046875 198.125 C 170.117188 198.867188 170.214844 199.585938 170.335938 200.316406 C 170.503906 201.308594 170.710938 202.273438 170.957031 203.203125 C 171.183594 204.035156 171.4375 204.871094 171.734375 205.691406 C 171.402344 207.386719 170.914062 209.007812 170.320312 210.542969 C 169.621094 212.371094 168.773438 214.054688 167.871094 215.578125 Z M 179.546875 182.902344 C 177.808594 185.457031 175.921875 187.597656 174.242188 189.28125 C 172.878906 190.648438 171.648438 191.71875 170.746094 192.457031 C 169.558594 191.542969 167.785156 190.085938 165.851562 188.132812 C 164.359375 186.613281 162.777344 184.808594 161.300781 182.726562 C 160.164062 181.132812 159.097656 179.378906 158.195312 177.480469 C 157.359375 175.71875 156.660156 173.832031 156.1875 171.839844 C 157.917969 169.429688 159.613281 166.839844 161.195312 164.21875 C 162.863281 161.445312 164.410156 158.621094 165.730469 155.914062 C 166.515625 154.316406 167.214844 152.753906 167.828125 151.261719 C 168.011719 150.804688 168.195312 150.359375 168.359375 149.910156 L 168.414062 150.070312 C 168.886719 151.410156 169.4375 152.769531 170.046875 154.113281 C 170.652344 155.429688 171.304688 156.710938 172.003906 157.929688 C 172.890625 159.457031 173.859375 160.957031 174.871094 162.375 C 175.921875 163.859375 177.03125 165.28125 178.167969 166.605469 C 179.25 167.867188 180.371094 169.0625 181.480469 170.140625 C 182.449219 171.070312 183.402344 171.921875 184.328125 172.65625 C 183.890625 174.359375 183.296875 175.980469 182.597656 177.515625 C 181.714844 179.464844 180.667969 181.261719 179.546875 182.902344 Z M 138.058594 176.351562 C 137.324219 174.597656 136.609375 172.550781 135.988281 170.332031 C 135.402344 168.261719 134.894531 166.042969 134.519531 163.761719 C 133.847656 159.734375 134.378906 155.867188 135.785156 152.421875 C 137.289062 148.738281 139.78125 145.515625 142.875 143.058594 C 145.96875 140.59375 149.65625 138.894531 153.527344 138.234375 C 157.175781 137.628906 160.992188 137.945312 164.636719 139.445312 C 166.308594 140.128906 166.734375 140.683594 166.628906 142.347656 C 166.5 144.515625 165.476562 147.683594 163.902344 151.289062 C 162.171875 155.238281 159.789062 159.664062 157.140625 163.910156 C 154.457031 168.210938 151.519531 172.296875 148.738281 175.472656 C 147.0625 177.375 145.460938 178.9375 144.027344 180 C 143.363281 180.5 142.726562 180.886719 142.140625 181.140625 C 140.8125 181.726562 140.839844 181.542969 140.0625 180.34375 C 139.449219 179.394531 138.757812 178.015625 138.058594 176.351562 Z M 188.472656 242.703125 C 189.484375 245.921875 190.824219 248.800781 192.222656 251.265625 C 194.09375 254.582031 196.074219 257.175781 197.589844 258.941406 C 197.082031 259.78125 196.546875 260.582031 196.007812 261.351562 C 195.253906 262.394531 194.484375 263.378906 193.714844 264.28125 C 192.675781 265.5 191.679688 266.5625 190.761719 267.457031 C 190.097656 268.117188 189.46875 268.695312 188.910156 269.1875 C 188.226562 268.632812 187.449219 267.957031 186.628906 267.1875 C 185.78125 266.386719 184.863281 265.46875 183.945312 264.449219 C 183.148438 263.582031 182.34375 262.625 181.558594 261.589844 C 181 260.851562 180.441406 260.070312 179.890625 259.238281 C 181.113281 257.710938 182.652344 255.589844 184.144531 252.976562 C 185.769531 250.113281 187.363281 246.660156 188.472656 242.703125 Z M 188.132812 221.921875 C 186.988281 221 185.324219 219.570312 183.515625 217.667969 C 181.375 215.402344 179.042969 212.492188 177.164062 209.019531 C 176.042969 206.949219 175.089844 204.675781 174.445312 202.226562 C 173.832031 199.914062 173.492188 197.4375 173.5625 194.832031 C 174.863281 193.726562 176.636719 192.105469 178.507812 190.035156 C 179.960938 188.4375 181.460938 186.570312 182.878906 184.4375 C 183.902344 182.878906 184.890625 181.175781 185.726562 179.386719 C 186.355469 178.050781 186.90625 176.667969 187.351562 175.238281 C 187.851562 176.65625 188.453125 178.027344 189.117188 179.324219 C 190.027344 181.105469 191.058594 182.773438 192.132812 184.28125 C 193.898438 186.761719 195.8125 188.894531 197.589844 190.640625 C 199.195312 192.21875 200.664062 193.472656 201.792969 194.359375 C 201.933594 196.789062 201.722656 199.113281 201.257812 201.308594 C 200.699219 203.957031 199.78125 206.421875 198.65625 208.65625 C 196.898438 212.195312 194.660156 215.183594 192.597656 217.507812 C 190.859375 219.472656 189.242188 220.964844 188.132812 221.921875 Z M 160.058594 230.660156 C 160.757812 229.992188 161.464844 229.308594 162.085938 228.703125 C 161.980469 230.429688 162 232.097656 162.113281 233.710938 C 162.296875 236.386719 162.742188 238.90625 163.363281 241.265625 C 164.042969 243.808594 164.925781 246.160156 165.914062 248.289062 C 166.777344 250.148438 167.707031 251.84375 168.640625 253.351562 C 168.492188 253.5 168.351562 253.632812 168.222656 253.746094 C 167.914062 254.035156 167.609375 254.300781 167.328125 254.546875 C 167.023438 254.816406 166.710938 255.070312 166.421875 255.308594 L 166.210938 255.484375 C 165.152344 254.335938 163.640625 252.546875 162.128906 250.238281 C 160.3125 247.457031 158.476562 243.914062 157.4375 239.816406 C 157.183594 238.816406 156.972656 237.773438 156.832031 236.710938 C 156.703125 235.800781 156.625 234.878906 156.589844 233.949219 C 157.253906 233.335938 158.660156 232 160.058594 230.660156 Z M 180.597656 134.816406 C 183.523438 133.832031 184.222656 133.664062 184.433594 130.648438 C 184.914062 123.875 186.199219 115.296875 189.234375 105.804688 L 193.855469 107.472656 C 191.03125 116.386719 189.808594 124.429688 189.355469 130.796875 C 189.179688 133.234375 189.90625 133.664062 192.316406 134.367188 C 195.386719 135.261719 199.371094 136.140625 201.519531 138.480469 C 202.980469 140.070312 203.585938 142.410156 202.648438 146.140625 C 202.253906 147.703125 201.722656 149.367188 201.082031 151.027344 C 200.472656 152.605469 199.746094 154.203125 198.933594 155.71875 C 198.085938 157.304688 197.167969 158.832031 196.199219 160.28125 C 195.175781 161.796875 194.101562 163.246094 192.980469 164.597656 C 191.933594 165.867188 190.867188 167.042969 189.816406 168.085938 C 188.953125 168.9375 188.097656 169.699219 187.273438 170.359375 C 186.425781 169.726562 185.554688 168.992188 184.671875 168.175781 C 183.585938 167.167969 182.476562 166.027344 181.382812 164.789062 C 180.230469 163.472656 179.09375 162.070312 178.035156 160.585938 C 177.015625 159.175781 176.042969 157.675781 175.144531 156.113281 C 174.285156 154.632812 173.519531 153.0625 172.84375 151.5 C 172.144531 149.839844 171.558594 148.199219 171.113281 146.65625 C 170.441406 144.316406 170.449219 142.5 170.941406 141.070312 C 172.207031 137.304688 177.300781 135.917969 180.597656 134.816406 Z M 214.378906 227.84375 C 215.023438 228.421875 215.757812 229.078125 216.484375 229.738281 C 217.925781 231.027344 219.359375 232.300781 220.042969 232.894531 C 220.042969 233.835938 219.988281 234.765625 219.894531 235.667969 C 219.789062 236.738281 219.613281 237.78125 219.386719 238.789062 L 219.394531 238.789062 C 218.6875 241.992188 217.5 244.886719 216.1875 247.351562 C 214.414062 250.695312 212.417969 253.246094 211.144531 254.730469 C 210.75 254.441406 210.375 254.148438 209.992188 253.84375 C 209.675781 253.589844 209.351562 253.316406 209.027344 253.035156 C 208.90625 252.929688 208.777344 252.816406 208.636719 252.695312 C 209.519531 251.160156 210.390625 249.429688 211.195312 247.546875 C 212.113281 245.371094 212.917969 242.984375 213.511719 240.421875 C 214.0625 238.046875 214.429688 235.507812 214.527344 232.84375 C 214.578125 231.21875 214.535156 229.554688 214.378906 227.84375 " fill-opacity="1" fill-rule="evenodd"/></g></svg>